# xmcd
#
# Track frame offsets: 
#        150
#        14081
#        23580
#        36702
#        47822
#        62670
#        73594
#        84498
#        94973
#        105237
#        115893
#        130023
#        140525
#        152339
#        168954
#
# Disc length: 2448 seconds
#
# Revision: 1
# Processed by: cddbd v1.5.2PL0 Copyright (c) Steve Scherf et al.
# Submitted via: ExactAudioCopyFreeDBPlugin 1.0
#
DISCID=c3098e0f
DTITLE=Al Green - Green is Blues
DYEAR=1969
DGENRE=Soul
TTITLE0=One Woman
TTITLE1=Talk to Me
TTITLE2=My Girl
TTITLE3=The Letter
TTITLE4=I Stand Accused
TTITLE5=Gotta Find a New World
TTITLE6=What Am I Gonna Do with Myself
TTITLE7=Tomorrow's Dream
TTITLE8=Get Back Baby
TTITLE9=Get Back
TTITLE10=Summertime
TTITLE11=I Want to Hold Your Hand
TTITLE12=Nothing Impossible with Love
TTITLE13=Baby, What's Wrong with You
TTITLE14=Memphis, Tennessee
EXTD=First released in 1969. First charted on 1-13-73 when it was re-i
EXTD=ssued in 1972.  Hi Records 72435-42474-2-2 c. 2003 . Bonus Tracks
EXTD=are #12-15.
EXTT0=
EXTT1=
EXTT2=
EXTT3=
EXTT4=
EXTT5=
EXTT6=
EXTT7=
EXTT8=
EXTT9=
EXTT10=
EXTT11=
EXTT12=
EXTT13=
EXTT14=
PLAYORDER=
